<mxfile host="app.diagrams.net" modified="2024-05-07T12:32:13.916Z" agent="Mozilla/5.0 (X11; Linux x86_64; rv:125.0) Gecko/20100101 Firefox/125.0" etag="3H3uy1AtyredGicbwbjx" version="24.3.0" type="device">
  <diagram name="Page-1" id="e7e014a7-5840-1c2e-5031-d8a46d1fe8dd">
    <mxGraphModel dx="1257" dy="726" grid="1" gridSize="10" guides="1" tooltips="1" connect="1" arrows="1" fold="1" page="1" pageScale="1" pageWidth="1169" pageHeight="826" background="none" math="0" shadow="0">
      <root>
        <mxCell id="0" />
        <mxCell id="1" parent="0" />
        <mxCell id="2" value="Back-end" style="swimlane;whiteSpace=wrap" parent="1" vertex="1">
          <mxGeometry x="380" y="410" width="300" height="290" as="geometry" />
        </mxCell>
        <mxCell id="8" value="LLM" style="fillColor=#f5f5f5;strokeColor=#666666;fontColor=#333333;" parent="2" vertex="1">
          <mxGeometry x="170" y="60" width="110" height="50" as="geometry" />
        </mxCell>
        <mxCell id="fis4cy7Ej7IjJM2nT0fo-86" value="" style="edgeStyle=orthogonalEdgeStyle;rounded=0;orthogonalLoop=1;jettySize=auto;html=1;exitX=0.5;exitY=1;exitDx=0;exitDy=0;entryX=0.5;entryY=0;entryDx=0;entryDy=0;fillColor=#d5e8d4;strokeColor=#82b366;" edge="1" parent="2">
          <mxGeometry relative="1" as="geometry">
            <mxPoint x="255" y="110" as="sourcePoint" />
            <mxPoint x="255" y="190" as="targetPoint" />
          </mxGeometry>
        </mxCell>
        <mxCell id="10" value="API" style="fillColor=#f5f5f5;strokeColor=#666666;fontColor=#333333;" parent="2" vertex="1">
          <mxGeometry x="170" y="190" width="110" height="50" as="geometry" />
        </mxCell>
        <mxCell id="fis4cy7Ej7IjJM2nT0fo-84" style="edgeStyle=orthogonalEdgeStyle;rounded=0;orthogonalLoop=1;jettySize=auto;html=1;entryX=0;entryY=0.5;entryDx=0;entryDy=0;fillColor=#e1d5e7;strokeColor=#9673a6;" edge="1" parent="2" source="fis4cy7Ej7IjJM2nT0fo-83" target="8">
          <mxGeometry relative="1" as="geometry" />
        </mxCell>
        <mxCell id="fis4cy7Ej7IjJM2nT0fo-83" value="Fine-tuning / RAG workflow" style="rounded=0;whiteSpace=wrap;html=1;fillColor=#f5f5f5;fontColor=#333333;strokeColor=#666666;" vertex="1" parent="2">
          <mxGeometry x="30" y="60" width="100" height="50" as="geometry" />
        </mxCell>
        <mxCell id="fis4cy7Ej7IjJM2nT0fo-88" value="" style="edgeStyle=orthogonalEdgeStyle;rounded=0;orthogonalLoop=1;jettySize=auto;html=1;fillColor=#d5e8d4;strokeColor=#82b366;" edge="1" parent="2">
          <mxGeometry relative="1" as="geometry">
            <mxPoint x="198" y="190" as="sourcePoint" />
            <mxPoint x="198" y="110" as="targetPoint" />
          </mxGeometry>
        </mxCell>
        <mxCell id="3" value="Front-end" style="swimlane;whiteSpace=wrap" parent="1" vertex="1">
          <mxGeometry x="800" y="410" width="200" height="288" as="geometry" />
        </mxCell>
        <mxCell id="fis4cy7Ej7IjJM2nT0fo-42" value="&lt;font color=&quot;#82b366&quot;&gt;submits query&lt;/font&gt;" style="edgeStyle=orthogonalEdgeStyle;rounded=0;orthogonalLoop=1;jettySize=auto;html=1;exitX=0.25;exitY=1;exitDx=0;exitDy=0;entryX=0.25;entryY=0;entryDx=0;entryDy=0;strokeColor=#82B366;" edge="1" parent="3" source="15" target="fis4cy7Ej7IjJM2nT0fo-41">
          <mxGeometry x="0.0119" y="-30" relative="1" as="geometry">
            <mxPoint x="95" y="130" as="sourcePoint" />
            <mxPoint x="95" y="184" as="targetPoint" />
            <mxPoint as="offset" />
          </mxGeometry>
        </mxCell>
        <mxCell id="15" value="user interface" style="fillColor=#f5f5f5;fontColor=#333333;strokeColor=#666666;" parent="3" vertex="1">
          <mxGeometry x="40" y="60" width="120" height="50" as="geometry" />
        </mxCell>
        <mxCell id="fis4cy7Ej7IjJM2nT0fo-41" value="API wrapper" style="fillColor=#f5f5f5;fontColor=#333333;strokeColor=#666666;" vertex="1" parent="3">
          <mxGeometry x="39.5" y="190" width="120.5" height="50" as="geometry" />
        </mxCell>
        <mxCell id="fis4cy7Ej7IjJM2nT0fo-49" value="&lt;font color=&quot;#82b366&quot;&gt;displays results&lt;/font&gt;" style="endArrow=classic;html=1;rounded=0;exitX=0.75;exitY=0;exitDx=0;exitDy=0;entryX=0.75;entryY=1;entryDx=0;entryDy=0;strokeColor=#82B366;" edge="1" parent="3" source="fis4cy7Ej7IjJM2nT0fo-41" target="15">
          <mxGeometry y="-30" width="50" height="50" relative="1" as="geometry">
            <mxPoint x="-140" y="210" as="sourcePoint" />
            <mxPoint x="-90" y="160" as="targetPoint" />
            <mxPoint as="offset" />
          </mxGeometry>
        </mxCell>
        <mxCell id="fis4cy7Ej7IjJM2nT0fo-50" value="" style="endArrow=classic;html=1;rounded=0;entryX=1;entryY=0.25;entryDx=0;entryDy=0;fillColor=#d5e8d4;strokeColor=#82B366;exitX=0;exitY=0.25;exitDx=0;exitDy=0;" edge="1" parent="1" source="fis4cy7Ej7IjJM2nT0fo-41" target="10">
          <mxGeometry width="50" height="50" relative="1" as="geometry">
            <mxPoint x="870" y="610" as="sourcePoint" />
            <mxPoint x="640.3299999999999" y="620.02" as="targetPoint" />
            <Array as="points" />
          </mxGeometry>
        </mxCell>
        <mxCell id="fis4cy7Ej7IjJM2nT0fo-51" value="HTTP POST" style="edgeLabel;html=1;align=center;verticalAlign=middle;resizable=0;points=[];fontColor=#82B366;" vertex="1" connectable="0" parent="fis4cy7Ej7IjJM2nT0fo-50">
          <mxGeometry x="-0.726" y="-1" relative="1" as="geometry">
            <mxPoint x="-71" y="1" as="offset" />
          </mxGeometry>
        </mxCell>
        <mxCell id="fis4cy7Ej7IjJM2nT0fo-52" value="" style="endArrow=classic;html=1;rounded=0;entryX=0;entryY=0.75;entryDx=0;entryDy=0;exitX=1;exitY=0.75;exitDx=0;exitDy=0;fillColor=#d5e8d4;strokeColor=#82b366;" edge="1" parent="1" source="10" target="fis4cy7Ej7IjJM2nT0fo-41">
          <mxGeometry width="50" height="50" relative="1" as="geometry">
            <mxPoint x="640" y="640" as="sourcePoint" />
            <mxPoint x="1020" y="640" as="targetPoint" />
            <Array as="points" />
          </mxGeometry>
        </mxCell>
        <mxCell id="fis4cy7Ej7IjJM2nT0fo-53" value="HTTP GET" style="edgeLabel;html=1;align=center;verticalAlign=middle;resizable=0;points=[];fontColor=#82B366;" vertex="1" connectable="0" parent="fis4cy7Ej7IjJM2nT0fo-52">
          <mxGeometry x="0.8408" relative="1" as="geometry">
            <mxPoint x="-83" y="1" as="offset" />
          </mxGeometry>
        </mxCell>
        <mxCell id="fis4cy7Ej7IjJM2nT0fo-65" value="External data" style="swimlane;whiteSpace=wrap;html=1;" vertex="1" parent="1">
          <mxGeometry x="50" y="360" width="200" height="290" as="geometry" />
        </mxCell>
        <mxCell id="fis4cy7Ej7IjJM2nT0fo-66" value="List of tools" style="rounded=0;whiteSpace=wrap;html=1;fillColor=#f5f5f5;fontColor=#333333;strokeColor=#666666;" vertex="1" parent="fis4cy7Ej7IjJM2nT0fo-65">
          <mxGeometry x="40" y="60" width="120" height="50" as="geometry" />
        </mxCell>
        <mxCell id="fis4cy7Ej7IjJM2nT0fo-78" value="Tool documentation" style="rounded=0;whiteSpace=wrap;html=1;fillColor=#f5f5f5;fontColor=#333333;strokeColor=#666666;" vertex="1" parent="fis4cy7Ej7IjJM2nT0fo-65">
          <mxGeometry x="40" y="170" width="120" height="60" as="geometry" />
        </mxCell>
        <mxCell id="fis4cy7Ej7IjJM2nT0fo-70" value="" style="endArrow=classic;html=1;rounded=0;exitX=1;exitY=0.5;exitDx=0;exitDy=0;fillColor=#e1d5e7;strokeColor=#9673A6;entryX=0;entryY=0.25;entryDx=0;entryDy=0;" edge="1" parent="1" source="fis4cy7Ej7IjJM2nT0fo-66" target="fis4cy7Ej7IjJM2nT0fo-83">
          <mxGeometry width="50" height="50" relative="1" as="geometry">
            <mxPoint x="370" y="580" as="sourcePoint" />
            <mxPoint x="410" y="490" as="targetPoint" />
          </mxGeometry>
        </mxCell>
        <mxCell id="fis4cy7Ej7IjJM2nT0fo-73" value="CRON job" style="edgeLabel;html=1;align=center;verticalAlign=middle;resizable=0;points=[];fontColor=#9673A6;" vertex="1" connectable="0" parent="fis4cy7Ej7IjJM2nT0fo-70">
          <mxGeometry x="-0.0238" y="-2" relative="1" as="geometry">
            <mxPoint x="344" y="304" as="offset" />
          </mxGeometry>
        </mxCell>
        <mxCell id="fis4cy7Ej7IjJM2nT0fo-74" value="" style="endArrow=classic;html=1;rounded=0;strokeColor=#82B366;" edge="1" parent="1">
          <mxGeometry width="50" height="50" relative="1" as="geometry">
            <mxPoint x="590" y="800" as="sourcePoint" />
            <mxPoint x="620" y="800" as="targetPoint" />
          </mxGeometry>
        </mxCell>
        <mxCell id="fis4cy7Ej7IjJM2nT0fo-76" value="Real-time" style="text;html=1;align=center;verticalAlign=middle;resizable=0;points=[];autosize=1;strokeColor=none;fillColor=none;fontColor=#82B366;" vertex="1" parent="1">
          <mxGeometry x="617" y="786" width="70" height="30" as="geometry" />
        </mxCell>
        <mxCell id="fis4cy7Ej7IjJM2nT0fo-79" value="" style="endArrow=classic;html=1;rounded=0;exitX=1;exitY=0.5;exitDx=0;exitDy=0;fillColor=#e1d5e7;strokeColor=#9673a6;entryX=0;entryY=0.75;entryDx=0;entryDy=0;" edge="1" parent="1" source="fis4cy7Ej7IjJM2nT0fo-78" target="fis4cy7Ej7IjJM2nT0fo-83">
          <mxGeometry width="50" height="50" relative="1" as="geometry">
            <mxPoint x="360" y="580" as="sourcePoint" />
            <mxPoint x="410" y="510" as="targetPoint" />
          </mxGeometry>
        </mxCell>
        <mxCell id="fis4cy7Ej7IjJM2nT0fo-81" value="" style="endArrow=classic;html=1;rounded=0;fillColor=#e1d5e7;strokeColor=#9673A6;" edge="1" parent="1">
          <mxGeometry width="50" height="50" relative="1" as="geometry">
            <mxPoint x="590" y="770" as="sourcePoint" />
            <mxPoint x="620" y="770" as="targetPoint" />
          </mxGeometry>
        </mxCell>
        <mxCell id="fis4cy7Ej7IjJM2nT0fo-85" value="Epiverse search project" style="swimlane;whiteSpace=wrap;html=1;" vertex="1" parent="1">
          <mxGeometry x="340" y="330" width="700" height="400" as="geometry" />
        </mxCell>
      </root>
    </mxGraphModel>
  </diagram>
</mxfile>
